<svg width="104" height="104" viewBox="0 0 104 104" fill="none" xmlns="http://www.w3.org/2000/svg">
<g filter="url(#filter0_d_30_9)">
<path d="M18.7509 16.4947C12.4135 24.2596 9.57981 29.0415 5.77621 38.3152C2.93195 50.5179 3.5103 57.7186 7.46292 71.0461C11.6463 79.6794 14.6535 83.1377 20.1781 88.9701C25.6815 93.4837 29.3241 95.4938 36.9155 98.062C44.4033 99.9347 48.9548 100.441 58.194 99.6206C69.709 97.1247 74.1954 95.6883 83.6244 88.9701C89.8309 83.6843 92.7534 79.8436 96.7289 71.0461C99.2407 62.9272 100.178 57.7822 99.9726 46.2382C98.9614 38.9958 97.7333 34.6738 92.7067 25.8463C87.6747 19.2143 84.4391 15.912 77.6561 11.0395C70.6473 6.98133 66.3707 5.50593 58.194 4.02578C49.7309 3.87772 45.0732 4.34107 36.9155 6.10393C29.6775 9.2342 25.7238 11.6598 18.7509 16.4947Z" fill="#FF002E" fill-opacity="0.7"/>
<path d="M18.7509 16.4947C12.4135 24.2596 9.57981 29.0415 5.77621 38.3152C2.93195 50.5179 3.5103 57.7186 7.46292 71.0461C11.6463 79.6794 14.6535 83.1377 20.1781 88.9701C25.6815 93.4837 29.3241 95.4938 36.9155 98.062C44.4033 99.9347 48.9548 100.441 58.194 99.6206C69.709 97.1247 74.1954 95.6883 83.6244 88.9701C89.8309 83.6843 92.7534 79.8436 96.7289 71.0461C99.2407 62.9272 100.178 57.7822 99.9726 46.2382C98.9614 38.9958 97.7333 34.6738 92.7067 25.8463C87.6747 19.2143 84.4391 15.912 77.6561 11.0395C70.6473 6.98133 66.3707 5.50593 58.194 4.02578C49.7309 3.87772 45.0732 4.34107 36.9155 6.10393C29.6775 9.2342 25.7238 11.6598 18.7509 16.4947Z" stroke="#FF002E" stroke-opacity="0.7"/>
</g>
<g filter="url(#filter1_d_30_9)">
<path d="M83.4946 35.4578C79.7607 24.08 76.3639 19.1872 68.3142 12.728C73.845 14.7878 76.8545 16.6212 82.0674 21.0406C86.6799 25.9819 88.5877 28.7717 91.2794 33.7693C94.6666 43.5513 95.3567 49.1733 94.0041 59.4864C92.2989 67.7636 90.114 72.5687 82.0674 81.6966C72.7774 89.1103 67.4392 92.8756 56.2477 94.5551C54.523 92.1527 54.251 90.6913 56.2477 87.6712C54.9307 84.6798 54.0835 85.0321 52.3553 89.7494C51.4386 78.4658 63.6239 65.9804 63.1243 65.8507C62.6248 65.721 60.8893 63.4237 58.9724 65.8507C60.6407 59.0923 62.0236 55.7773 65.849 51.3037C64.3341 50.8243 63.4156 51.5899 61.6971 54.1611C63.1579 48.599 63.7504 45.6925 63.1243 42.0819C63.362 40.1821 63.2055 39.1427 60.1401 37.5359C57.2009 38.6367 55.9164 40.3189 53.9123 44.16C52.9324 47.2053 51.6108 49.4439 48.2034 54.1611L46.1274 51.3037C46.7614 47.3855 47.1467 45.3796 48.2034 44.16V37.5359L50.9281 31.9509C51.5593 30.326 51.868 28.5175 52.3553 24.028L53.9123 28.3141C58.089 24.874 60.7869 24.2429 65.849 24.028L64.292 26.7555C69.8901 28.5942 72.5428 31.4469 77.0072 37.5359L72.7256 36.367C75.3871 43.7595 76.3631 47.0909 77.0072 51.3037L73.6338 48.3163C73.607 53.1181 74.89 55.0545 78.175 57.9278C80.8604 59.1898 82.3661 59.0295 85.0515 57.9278C87.3392 54.4773 88.1198 52.344 88.944 48.3163L86.4788 51.3037C88.0474 43.7817 87.978 39.549 85.0515 31.9509L83.4946 35.4578Z" fill="#D9D9D9" shape-rendering="crispEdges"/>
<path d="M83.4946 35.4578C79.7607 24.08 76.3639 19.1872 68.3142 12.728C73.845 14.7878 76.8545 16.6212 82.0674 21.0406C86.6799 25.9819 88.5877 28.7717 91.2794 33.7693C94.6666 43.5513 95.3567 49.1733 94.0041 59.4864C92.2989 67.7636 90.114 72.5687 82.0674 81.6966C72.7774 89.1103 67.4392 92.8756 56.2477 94.5551C54.523 92.1527 54.251 90.6913 56.2477 87.6712C54.9307 84.6798 54.0835 85.0321 52.3553 89.7494C51.4386 78.4658 63.6239 65.9804 63.1243 65.8507C62.6248 65.721 60.8893 63.4237 58.9724 65.8507C60.6407 59.0923 62.0236 55.7773 65.849 51.3037C64.3341 50.8243 63.4156 51.5899 61.6971 54.1611C63.1579 48.599 63.7504 45.6925 63.1243 42.0819C63.362 40.1821 63.2055 39.1427 60.1401 37.5359C57.2009 38.6367 55.9164 40.3189 53.9123 44.16C52.9324 47.2053 51.6108 49.4439 48.2034 54.1611L46.1274 51.3037C46.7614 47.3855 47.1467 45.3796 48.2034 44.16V37.5359L50.9281 31.9509C51.5593 30.326 51.868 28.5175 52.3553 24.028L53.9123 28.3141C58.089 24.874 60.7869 24.2429 65.849 24.028L64.292 26.7555C69.8901 28.5942 72.5428 31.4469 77.0072 37.5359L72.7256 36.367C75.3871 43.7595 76.3631 47.0909 77.0072 51.3037L73.6338 48.3163C73.607 53.1181 74.89 55.0545 78.175 57.9278C80.8604 59.1898 82.3661 59.0295 85.0515 57.9278C87.3392 54.4773 88.1198 52.344 88.944 48.3163L86.4788 51.3037C88.0474 43.7817 87.978 39.549 85.0515 31.9509L83.4946 35.4578Z" fill="#3F3E3E" shape-rendering="crispEdges"/>
<path d="M83.4946 35.4578C79.7607 24.08 76.3639 19.1872 68.3142 12.728C73.845 14.7878 76.8545 16.6212 82.0674 21.0406C86.6799 25.9819 88.5877 28.7717 91.2794 33.7693C94.6666 43.5513 95.3567 49.1733 94.0041 59.4864C92.2989 67.7636 90.114 72.5687 82.0674 81.6966C72.7774 89.1103 67.4392 92.8756 56.2477 94.5551C54.523 92.1527 54.251 90.6913 56.2477 87.6712C54.9307 84.6798 54.0835 85.0321 52.3553 89.7494C51.4386 78.4658 63.6239 65.9804 63.1243 65.8507C62.6248 65.721 60.8893 63.4237 58.9724 65.8507C60.6407 59.0923 62.0236 55.7773 65.849 51.3037C64.3341 50.8243 63.4156 51.5899 61.6971 54.1611C63.1579 48.599 63.7504 45.6925 63.1243 42.0819C63.362 40.1821 63.2055 39.1427 60.1401 37.5359C57.2009 38.6367 55.9164 40.3189 53.9123 44.16C52.9324 47.2053 51.6108 49.4439 48.2034 54.1611L46.1274 51.3037C46.7614 47.3855 47.1467 45.3796 48.2034 44.16V37.5359L50.9281 31.9509C51.5593 30.326 51.868 28.5175 52.3553 24.028L53.9123 28.3141C58.089 24.874 60.7869 24.2429 65.849 24.028L64.292 26.7555C69.8901 28.5942 72.5428 31.4469 77.0072 37.5359L72.7256 36.367C75.3871 43.7595 76.3631 47.0909 77.0072 51.3037L73.6338 48.3163C73.607 53.1181 74.89 55.0545 78.175 57.9278C80.8604 59.1898 82.3661 59.0295 85.0515 57.9278C87.3392 54.4773 88.1198 52.344 88.944 48.3163L86.4788 51.3037C88.0474 43.7817 87.978 39.549 85.0515 31.9509L83.4946 35.4578Z" stroke="#FF002E" stroke-opacity="0.7" shape-rendering="crispEdges"/>
</g>
<g filter="url(#filter2_d_30_9)">
<path d="M57.8043 57.668C57.3218 53.8493 57.8172 53.7667 56.2473 51.9531C52.9946 54.2321 51.8171 55.4768 50.2789 57.668C48.7011 59.1375 49.0261 57.7533 46.9055 65.4611C44.5237 66.1239 43.1731 66.1584 40.6777 64.2921C40.1006 59.8067 40.2737 57.0244 43.9213 50.2646L39.7694 51.9531C40.9139 43.8879 42.648 40.5473 46.9055 35.8475L42.1049 37.9256C45.2788 34.8215 46.9551 32.9498 48.722 28.0544C50.833 22.8791 51.4999 19.7519 51.4467 13.6372C50.9111 15.7824 50.2962 16.312 48.722 16.2349C49.226 13.5955 48.9496 12.2567 46.9055 10.2603C39.2167 10.3307 34.8974 12.1802 27.184 17.5338C19.7742 22.9981 16.9577 27.2583 13.0415 35.8475C9.69871 43.4354 8.9011 48.1954 9.53837 57.668C10.269 67.2032 12.3372 70.8311 16.6745 76.6311C24.9696 86.8644 28.8454 89.2661 35.358 91.8276C27.5066 84.1852 23.7777 79.359 20.3074 68.1886L19.1396 72.0852C16.9528 64.3972 16.434 60.3056 17.9719 53.7715L14.9877 54.9404C15.1973 49.6959 16.1784 47.3977 20.3074 45.0692C23.643 44.9298 25.0992 45.6838 27.184 48.0566C28.6845 51.0668 29.0083 52.4714 29.5194 54.9404L27.184 53.7715C28.8407 62.0298 30.1257 65.0262 32.8928 68.1886L29.5194 69.7472C34.2692 74.0972 37.0192 75.2798 42.1049 74.8127C41.8351 77.1365 41.1971 77.8317 39.7694 78.7093C45.4025 78.3282 47.8717 77.9759 48.722 76.6311L50.2789 80.3978C50.2771 77.2651 51.4467 74.8127 51.4467 74.8127C51.4467 74.8127 53.1924 70.4553 54.8201 69.7472C55.1896 67.5709 55.185 66.1703 54.8201 63.3829L57.8043 57.668Z" fill="#ACA6A6" shape-rendering="crispEdges"/>
<path d="M57.8043 57.668C57.3218 53.8493 57.8172 53.7667 56.2473 51.9531C52.9946 54.2321 51.8171 55.4768 50.2789 57.668C48.7011 59.1375 49.0261 57.7533 46.9055 65.4611C44.5237 66.1239 43.1731 66.1584 40.6777 64.2921C40.1006 59.8067 40.2737 57.0244 43.9213 50.2646L39.7694 51.9531C40.9139 43.8879 42.648 40.5473 46.9055 35.8475L42.1049 37.9256C45.2788 34.8215 46.9551 32.9498 48.722 28.0544C50.833 22.8791 51.4999 19.7519 51.4467 13.6372C50.9111 15.7824 50.2962 16.312 48.722 16.2349C49.226 13.5955 48.9496 12.2567 46.9055 10.2603C39.2167 10.3307 34.8974 12.1802 27.184 17.5338C19.7742 22.9981 16.9577 27.2583 13.0415 35.8475C9.69871 43.4354 8.9011 48.1954 9.53837 57.668C10.269 67.2032 12.3372 70.8311 16.6745 76.6311C24.9696 86.8644 28.8454 89.2661 35.358 91.8276C27.5066 84.1852 23.7777 79.359 20.3074 68.1886L19.1396 72.0852C16.9528 64.3972 16.434 60.3056 17.9719 53.7715L14.9877 54.9404C15.1973 49.6959 16.1784 47.3977 20.3074 45.0692C23.643 44.9298 25.0992 45.6838 27.184 48.0566C28.6845 51.0668 29.0083 52.4714 29.5194 54.9404L27.184 53.7715C28.8407 62.0298 30.1257 65.0262 32.8928 68.1886L29.5194 69.7472C34.2692 74.0972 37.0192 75.2798 42.1049 74.8127C41.8351 77.1365 41.1971 77.8317 39.7694 78.7093C45.4025 78.3282 47.8717 77.9759 48.722 76.6311L50.2789 80.3978C50.2771 77.2651 51.4467 74.8127 51.4467 74.8127C51.4467 74.8127 53.1924 70.4553 54.8201 69.7472C55.1896 67.5709 55.185 66.1703 54.8201 63.3829L57.8043 57.668Z" stroke="#FF002E" stroke-opacity="0.7" shape-rendering="crispEdges"/>
</g>
<defs>
<filter id="filter0_d_30_9" x="0.5" y="0.5" width="103" height="103" filterUnits="userSpaceOnUse" color-interpolation-filters="sRGB">
<feFlood flood-opacity="0" result="BackgroundImageFix"/>
<feColorMatrix in="SourceAlpha" type="matrix" values="0 0 0 0 0 0 0 0 0 0 0 0 0 0 0 0 0 0 127 0" result="hardAlpha"/>
<feOffset/>
<feGaussianBlur stdDeviation="1.5"/>
<feColorMatrix type="matrix" values="0 0 0 0 0 0 0 0 0 0 0 0 0 0 0 0 0 0 0.25 0"/>
<feBlend mode="normal" in2="BackgroundImageFix" result="effect1_dropShadow_30_9"/>
<feBlend mode="normal" in="SourceGraphic" in2="effect1_dropShadow_30_9" result="shape"/>
</filter>
<filter id="filter1_d_30_9" x="41.6006" y="8.25952" width="57.5532" height="90.8354" filterUnits="userSpaceOnUse" color-interpolation-filters="sRGB">
<feFlood flood-opacity="0" result="BackgroundImageFix"/>
<feColorMatrix in="SourceAlpha" type="matrix" values="0 0 0 0 0 0 0 0 0 0 0 0 0 0 0 0 0 0 127 0" result="hardAlpha"/>
<feOffset/>
<feGaussianBlur stdDeviation="2"/>
<feComposite in2="hardAlpha" operator="out"/>
<feColorMatrix type="matrix" values="0 0 0 0 0 0 0 0 0 0 0 0 0 0 0 0 0 0 0.25 0"/>
<feBlend mode="normal" in2="BackgroundImageFix" result="effect1_dropShadow_30_9"/>
<feBlend mode="normal" in="SourceGraphic" in2="effect1_dropShadow_30_9" result="shape"/>
</filter>
<filter id="filter2_d_30_9" x="4.83691" y="5.7583" width="57.4829" height="90.5347" filterUnits="userSpaceOnUse" color-interpolation-filters="sRGB">
<feFlood flood-opacity="0" result="BackgroundImageFix"/>
<feColorMatrix in="SourceAlpha" type="matrix" values="0 0 0 0 0 0 0 0 0 0 0 0 0 0 0 0 0 0 127 0" result="hardAlpha"/>
<feOffset/>
<feGaussianBlur stdDeviation="2"/>
<feComposite in2="hardAlpha" operator="out"/>
<feColorMatrix type="matrix" values="0 0 0 0 0 0 0 0 0 0 0 0 0 0 0 0 0 0 0.25 0"/>
<feBlend mode="normal" in2="BackgroundImageFix" result="effect1_dropShadow_30_9"/>
<feBlend mode="normal" in="SourceGraphic" in2="effect1_dropShadow_30_9" result="shape"/>
</filter>
</defs>
</svg>
