<svg width="91" height="90" viewBox="0 0 91 90" fill="none" xmlns="http://www.w3.org/2000/svg">
<g filter="url(#filter0_d_170_2)">
<path d="M16.928 14.7588C11.4501 21.386 9.00076 25.4673 5.71304 33.3823C3.25454 43.7971 3.75445 49.9428 7.17098 61.3177C10.787 68.6861 13.3863 71.6377 18.1616 76.6156C22.9186 80.4678 26.0671 82.1835 32.6289 84.3754C39.1012 85.9737 43.0353 86.406 51.0215 85.7057C60.9747 83.5754 64.8526 82.3495 73.0028 76.6156C78.3675 72.1042 80.8936 68.8263 84.3299 61.3177C86.501 54.3883 87.3114 49.9971 87.1336 40.1444C86.2596 33.9632 85.198 30.2744 80.8532 22.7403C76.5037 17.0799 73.7069 14.2614 67.8439 10.1029C61.7857 6.63925 58.0892 5.38002 51.0215 4.11673C43.7062 3.99036 39.6802 4.38582 32.6289 5.8904C26.3726 8.56205 22.9551 10.6323 16.928 14.7588Z" fill="#FF002E" fill-opacity="0.7"/>
<path d="M16.928 14.7588C11.4501 21.386 9.00076 25.4673 5.71304 33.3823C3.25454 43.7971 3.75445 49.9428 7.17098 61.3177C10.787 68.6861 13.3863 71.6377 18.1616 76.6156C22.9186 80.4678 26.0671 82.1835 32.6289 84.3754C39.1012 85.9737 43.0353 86.406 51.0215 85.7057C60.9747 83.5754 64.8526 82.3495 73.0028 76.6156C78.3675 72.1042 80.8936 68.8263 84.3299 61.3177C86.501 54.3883 87.3114 49.9971 87.1336 40.1444C86.2596 33.9632 85.198 30.2744 80.8532 22.7403C76.5037 17.0799 73.7069 14.2614 67.8439 10.1029C61.7857 6.63925 58.0892 5.38002 51.0215 4.11673C43.7062 3.99036 39.6802 4.38582 32.6289 5.8904C26.3726 8.56205 22.9551 10.6323 16.928 14.7588Z" stroke="#FF002E" stroke-opacity="0.7"/>
</g>
<g filter="url(#filter1_d_170_2)">
<path d="M72.8909 30.9435C69.6634 21.2327 66.7273 17.0568 59.7694 11.5439C64.55 13.302 67.1514 14.8667 71.6572 18.6386C75.6441 22.8559 77.2932 25.237 79.6198 29.5024C82.5476 37.8512 83.1441 42.6495 81.975 51.4516C80.501 58.5161 78.6125 62.6172 71.6572 70.4077C63.6273 76.7352 59.013 79.9488 49.3395 81.3823C47.8487 79.3319 47.6136 78.0845 49.3395 75.507C48.201 72.9538 47.4688 73.2545 45.975 77.2807C45.1826 67.6503 55.7152 56.9941 55.2834 56.8834C54.8516 56.7727 53.3515 54.812 51.6946 56.8834C53.1366 51.1152 54.332 48.286 57.6385 44.4677C56.3291 44.0586 55.5352 44.712 54.0497 46.9065C55.3124 42.1593 55.8246 39.6787 55.2834 36.5971C55.4888 34.9756 55.3535 34.0885 52.7039 32.7172C50.1634 33.6566 49.053 35.0924 47.3208 38.3707C46.4738 40.9698 45.3314 42.8805 42.3862 46.9065L40.5918 44.4677C41.1398 41.1236 41.4728 39.4116 42.3862 38.3707V32.7172L44.7413 27.9504C45.287 26.5636 45.5538 25.0201 45.975 21.1883L47.3208 24.8465C50.931 21.9104 53.263 21.3718 57.6385 21.1883L56.2927 23.5162C61.1315 25.0855 63.4245 27.5202 67.2834 32.7172L63.5825 31.7195C65.883 38.0289 66.7266 40.8722 67.2834 44.4677L64.3675 41.9181C64.3443 46.0163 65.4533 47.669 68.2927 50.1213C70.614 51.1985 71.9154 51.0617 74.2367 50.1213C76.214 47.1764 76.8888 45.3557 77.6011 41.9181L75.4703 44.4677C76.8262 38.0479 76.7662 34.4353 74.2367 27.9504L72.8909 30.9435Z" fill="#D9D9D9" shape-rendering="crispEdges"/>
<path d="M72.8909 30.9435C69.6634 21.2327 66.7273 17.0568 59.7694 11.5439C64.55 13.302 67.1514 14.8667 71.6572 18.6386C75.6441 22.8559 77.2932 25.237 79.6198 29.5024C82.5476 37.8512 83.1441 42.6495 81.975 51.4516C80.501 58.5161 78.6125 62.6172 71.6572 70.4077C63.6273 76.7352 59.013 79.9488 49.3395 81.3823C47.8487 79.3319 47.6136 78.0845 49.3395 75.507C48.201 72.9538 47.4688 73.2545 45.975 77.2807C45.1826 67.6503 55.7152 56.9941 55.2834 56.8834C54.8516 56.7727 53.3515 54.812 51.6946 56.8834C53.1366 51.1152 54.332 48.286 57.6385 44.4677C56.3291 44.0586 55.5352 44.712 54.0497 46.9065C55.3124 42.1593 55.8246 39.6787 55.2834 36.5971C55.4888 34.9756 55.3535 34.0885 52.7039 32.7172C50.1634 33.6566 49.053 35.0924 47.3208 38.3707C46.4738 40.9698 45.3314 42.8805 42.3862 46.9065L40.5918 44.4677C41.1398 41.1236 41.4728 39.4116 42.3862 38.3707V32.7172L44.7413 27.9504C45.287 26.5636 45.5538 25.0201 45.975 21.1883L47.3208 24.8465C50.931 21.9104 53.263 21.3718 57.6385 21.1883L56.2927 23.5162C61.1315 25.0855 63.4245 27.5202 67.2834 32.7172L63.5825 31.7195C65.883 38.0289 66.7266 40.8722 67.2834 44.4677L64.3675 41.9181C64.3443 46.0163 65.4533 47.669 68.2927 50.1213C70.614 51.1985 71.9154 51.0617 74.2367 50.1213C76.214 47.1764 76.8888 45.3557 77.6011 41.9181L75.4703 44.4677C76.8262 38.0479 76.7662 34.4353 74.2367 27.9504L72.8909 30.9435Z" fill="#3F3E3E" shape-rendering="crispEdges"/>
<path d="M72.8909 30.9435C69.6634 21.2327 66.7273 17.0568 59.7694 11.5439C64.55 13.302 67.1514 14.8667 71.6572 18.6386C75.6441 22.8559 77.2932 25.237 79.6198 29.5024C82.5476 37.8512 83.1441 42.6495 81.975 51.4516C80.501 58.5161 78.6125 62.6172 71.6572 70.4077C63.6273 76.7352 59.013 79.9488 49.3395 81.3823C47.8487 79.3319 47.6136 78.0845 49.3395 75.507C48.201 72.9538 47.4688 73.2545 45.975 77.2807C45.1826 67.6503 55.7152 56.9941 55.2834 56.8834C54.8516 56.7727 53.3515 54.812 51.6946 56.8834C53.1366 51.1152 54.332 48.286 57.6385 44.4677C56.3291 44.0586 55.5352 44.712 54.0497 46.9065C55.3124 42.1593 55.8246 39.6787 55.2834 36.5971C55.4888 34.9756 55.3535 34.0885 52.7039 32.7172C50.1634 33.6566 49.053 35.0924 47.3208 38.3707C46.4738 40.9698 45.3314 42.8805 42.3862 46.9065L40.5918 44.4677C41.1398 41.1236 41.4728 39.4116 42.3862 38.3707V32.7172L44.7413 27.9504C45.287 26.5636 45.5538 25.0201 45.975 21.1883L47.3208 24.8465C50.931 21.9104 53.263 21.3718 57.6385 21.1883L56.2927 23.5162C61.1315 25.0855 63.4245 27.5202 67.2834 32.7172L63.5825 31.7195C65.883 38.0289 66.7266 40.8722 67.2834 44.4677L64.3675 41.9181C64.3443 46.0163 65.4533 47.669 68.2927 50.1213C70.614 51.1985 71.9154 51.0617 74.2367 50.1213C76.214 47.1764 76.8888 45.3557 77.6011 41.9181L75.4703 44.4677C76.8262 38.0479 76.7662 34.4353 74.2367 27.9504L72.8909 30.9435Z" stroke="#FF002E" stroke-opacity="0.7" shape-rendering="crispEdges"/>
</g>
<g filter="url(#filter2_d_170_2)">
<path d="M50.6848 49.8996C50.2678 46.6404 50.6959 46.5699 49.339 45.022C46.5274 46.9672 45.5097 48.0295 44.1801 49.8996C42.8163 51.1538 43.0972 49.9724 41.2642 56.5509C39.2054 57.1167 38.038 57.146 35.881 55.5532C35.3823 51.725 35.5319 49.3503 38.6848 43.5809L35.096 45.022C36.0852 38.1385 37.5841 35.2873 41.2642 31.2761L37.1147 33.0498C39.8581 30.4005 41.3071 28.8029 42.8343 24.6248C44.659 20.2077 45.2355 17.5387 45.1894 12.32C44.7265 14.1508 44.195 14.6028 42.8343 14.5371C43.27 12.2843 43.0311 11.1417 41.2642 9.43774C34.6182 9.49786 30.8848 11.0764 24.2175 15.6456C17.8127 20.3093 15.3782 23.9453 11.9932 31.2761C9.10374 37.7523 8.41431 41.8149 8.96515 49.8996C9.59669 58.0378 11.3844 61.1342 15.1334 66.0844C22.3035 74.8183 25.6536 76.8682 31.2829 79.0544C24.4963 72.5317 21.2732 68.4126 18.2736 58.8788L17.2642 62.2045C15.374 55.6429 14.9255 52.1508 16.2549 46.574L13.6754 47.5717C13.8566 43.0956 14.7046 41.1341 18.2736 39.1467C21.1568 39.0277 22.4154 39.6713 24.2175 41.6964C25.5145 44.2656 25.7944 45.4644 26.2362 47.5717L24.2175 46.574C25.6496 53.6224 26.7603 56.1797 29.1521 58.8788L26.2362 60.2091C30.3418 63.9217 32.7188 64.931 37.1147 64.5324C36.8815 66.5158 36.33 67.1091 35.096 67.8581C39.9651 67.5329 42.0993 67.2321 42.8343 66.0844L44.1801 69.2992C44.1785 66.6255 45.1894 64.5324 45.1894 64.5324C45.1894 64.5324 46.6984 60.8135 48.1053 60.2091C48.4247 58.3516 48.4207 57.1562 48.1053 54.7772L50.6848 49.8996Z" fill="#ACA6A6" shape-rendering="crispEdges"/>
<path d="M50.6848 49.8996C50.2678 46.6404 50.6959 46.5699 49.339 45.022C46.5274 46.9672 45.5097 48.0295 44.1801 49.8996C42.8163 51.1538 43.0972 49.9724 41.2642 56.5509C39.2054 57.1167 38.038 57.146 35.881 55.5532C35.3823 51.725 35.5319 49.3503 38.6848 43.5809L35.096 45.022C36.0852 38.1385 37.5841 35.2873 41.2642 31.2761L37.1147 33.0498C39.8581 30.4005 41.3071 28.8029 42.8343 24.6248C44.659 20.2077 45.2355 17.5387 45.1894 12.32C44.7265 14.1508 44.195 14.6028 42.8343 14.5371C43.27 12.2843 43.0311 11.1417 41.2642 9.43774C34.6182 9.49786 30.8848 11.0764 24.2175 15.6456C17.8127 20.3093 15.3782 23.9453 11.9932 31.2761C9.10374 37.7523 8.41431 41.8149 8.96515 49.8996C9.59669 58.0378 11.3844 61.1342 15.1334 66.0844C22.3035 74.8183 25.6536 76.8682 31.2829 79.0544C24.4963 72.5317 21.2732 68.4126 18.2736 58.8788L17.2642 62.2045C15.374 55.6429 14.9255 52.1508 16.2549 46.574L13.6754 47.5717C13.8566 43.0956 14.7046 41.1341 18.2736 39.1467C21.1568 39.0277 22.4154 39.6713 24.2175 41.6964C25.5145 44.2656 25.7944 45.4644 26.2362 47.5717L24.2175 46.574C25.6496 53.6224 26.7603 56.1797 29.1521 58.8788L26.2362 60.2091C30.3418 63.9217 32.7188 64.931 37.1147 64.5324C36.8815 66.5158 36.33 67.1091 35.096 67.8581C39.9651 67.5329 42.0993 67.2321 42.8343 66.0844L44.1801 69.2992C44.1785 66.6255 45.1894 64.5324 45.1894 64.5324C45.1894 64.5324 46.6984 60.8135 48.1053 60.2091C48.4247 58.3516 48.4207 57.1562 48.1053 54.7772L50.6848 49.8996Z" stroke="#FF002E" stroke-opacity="0.7" shape-rendering="crispEdges"/>
</g>
<defs>
<filter id="filter0_d_170_2" x="0.677734" y="0.594727" width="89.9795" height="88.9346" filterUnits="userSpaceOnUse" color-interpolation-filters="sRGB">
<feFlood flood-opacity="0" result="BackgroundImageFix"/>
<feColorMatrix in="SourceAlpha" type="matrix" values="0 0 0 0 0 0 0 0 0 0 0 0 0 0 0 0 0 0 127 0" result="hardAlpha"/>
<feOffset/>
<feGaussianBlur stdDeviation="1.5"/>
<feColorMatrix type="matrix" values="0 0 0 0 0 0 0 0 0 0 0 0 0 0 0 0 0 0 0.25 0"/>
<feBlend mode="normal" in2="BackgroundImageFix" result="effect1_dropShadow_170_2"/>
<feBlend mode="normal" in="SourceGraphic" in2="effect1_dropShadow_170_2" result="shape"/>
</filter>
<filter id="filter1_d_170_2" x="36.0645" y="7.07471" width="50.9717" height="78.8467" filterUnits="userSpaceOnUse" color-interpolation-filters="sRGB">
<feFlood flood-opacity="0" result="BackgroundImageFix"/>
<feColorMatrix in="SourceAlpha" type="matrix" values="0 0 0 0 0 0 0 0 0 0 0 0 0 0 0 0 0 0 127 0" result="hardAlpha"/>
<feOffset/>
<feGaussianBlur stdDeviation="2"/>
<feComposite in2="hardAlpha" operator="out"/>
<feColorMatrix type="matrix" values="0 0 0 0 0 0 0 0 0 0 0 0 0 0 0 0 0 0 0.25 0"/>
<feBlend mode="normal" in2="BackgroundImageFix" result="effect1_dropShadow_170_2"/>
<feBlend mode="normal" in="SourceGraphic" in2="effect1_dropShadow_170_2" result="shape"/>
</filter>
<filter id="filter2_d_170_2" x="4.29102" y="4.93604" width="50.9102" height="78.5845" filterUnits="userSpaceOnUse" color-interpolation-filters="sRGB">
<feFlood flood-opacity="0" result="BackgroundImageFix"/>
<feColorMatrix in="SourceAlpha" type="matrix" values="0 0 0 0 0 0 0 0 0 0 0 0 0 0 0 0 0 0 127 0" result="hardAlpha"/>
<feOffset/>
<feGaussianBlur stdDeviation="2"/>
<feComposite in2="hardAlpha" operator="out"/>
<feColorMatrix type="matrix" values="0 0 0 0 0 0 0 0 0 0 0 0 0 0 0 0 0 0 0.25 0"/>
<feBlend mode="normal" in2="BackgroundImageFix" result="effect1_dropShadow_170_2"/>
<feBlend mode="normal" in="SourceGraphic" in2="effect1_dropShadow_170_2" result="shape"/>
</filter>
</defs>
</svg>
