<svg width="460" height="100" viewBox="0 0 460 100" fill="none" xmlns="http://www.w3.org/2000/svg">
<g filter="url(#filter0_d_30_42)">
<path d="M39.0315 4H140.045L118.772 12.2102H46.2872V19.4328H103.752V37.4582C103.752 39.4336 103.148 40.9769 101.939 42.0881C100.729 43.1169 98.9154 43.6313 96.4968 43.6313H4L31.7758 35.4211H89.8215V27.7047H31.7758V10.1731C31.7758 8.40348 32.3804 6.94251 33.5897 5.7902C34.799 4.59673 36.6129 4 39.0315 4Z" fill="#FF002E" fill-opacity="0.8" shape-rendering="crispEdges"/>
<path d="M11.2559 55.934H61.0185H110.781L91.6493 64.2059H18.5117V87.3551H82.5797L110.781 95.5653H10.0225C8.86163 95.5653 7.5556 95.1332 6.10445 94.269C4.70168 93.4047 4.00028 91.7791 4.00028 89.3922V62.1071C4.00028 60.3786 4.60492 58.9382 5.81421 57.7859C7.0235 56.5513 8.83734 55.934 11.2559 55.934Z" fill="#FF002E" fill-opacity="0.8" shape-rendering="crispEdges"/>
</g>
<path d="M148.208 16.9H157.828V41.7698H148.208V31.7754H121.373V41.7698H112.167V16.9H121.373V26.5845H148.208V16.9Z" fill="white"/>
<path d="M160.129 16.9H193.868C195.096 16.9 196.385 17.2228 197.735 17.8684C198.993 18.5399 199.622 19.5083 199.622 20.7738V41.7698H190.831V31.7754H164.732V26.9331H190.831V22.7107C190.831 22.5041 190.631 22.3491 190.232 22.2458C190.048 22.1942 189.91 22.1554 189.818 22.1296C189.726 22.1038 189.68 22.0909 189.68 22.0909H160.129V16.9Z" fill="white"/>
<path d="M211.921 17.5585L224.579 26.2746L237.605 17.5585C238.925 16.7063 240.904 16.4868 243.543 16.9C246.243 17.339 247.594 18.4237 247.594 20.154V41.7698H238.388V23.6791C237.989 24.0149 237.36 24.4926 236.501 25.1125C235.672 25.7323 234.567 26.4941 233.186 27.398C231.836 28.3019 230.44 29.2316 228.998 30.1871C227.586 31.1169 226.113 32.0724 224.579 33.0538C223.014 32.0724 221.495 31.1169 220.022 30.1871C218.58 29.2316 217.153 28.3019 215.742 27.398C212.918 25.5902 211.261 24.3506 210.77 23.6791V41.7698H201.933V20.154C201.933 18.4237 203.206 17.339 205.753 16.9C208.3 16.4868 210.356 16.7063 211.921 17.5585Z" fill="white"/>
<path d="M249.895 16.9H283.634C284.861 16.9 286.15 17.2228 287.5 17.8684C288.758 18.5399 289.387 19.5083 289.387 20.7738V41.7698H280.596V31.7754H254.497V26.9331H280.596V22.7107C280.596 22.5041 280.396 22.3491 279.997 22.2458C279.813 22.1942 279.675 22.1554 279.583 22.1296C279.491 22.1038 279.445 22.0909 279.445 22.0909H249.895V16.9Z" fill="white"/>
<path d="M301.686 17.5585L328.153 35.6492V16.9H337.359V38.8645C337.359 39.4843 337.098 40.0783 336.576 40.6464C336.116 41.1371 335.61 41.5116 335.057 41.7698C333.462 42.2089 331.927 42.3122 330.455 42.0797C328.92 41.8989 327.509 41.4728 326.22 40.8014C326.22 40.8014 325.913 40.6206 325.299 40.259C324.716 39.8717 323.811 39.3035 322.584 38.5546C321.356 37.8056 320.052 36.9921 318.671 36.1141C317.321 35.2102 315.879 34.2417 314.344 33.2087C311.245 31.1685 308.299 29.2316 305.507 27.398C302.684 25.5902 301.027 24.3506 300.536 23.6791V41.7698H291.698V20.154C291.698 19.3017 292.143 18.5399 293.033 17.8684C293.984 17.2228 294.951 16.7967 295.933 16.5901C296.301 16.5901 296.715 16.603 297.176 16.6288C297.667 16.6546 298.204 16.6934 298.787 16.745C299.922 16.8742 300.889 17.1453 301.686 17.5585Z" fill="white"/>
<path d="M339.66 41.7698V16.9H348.866V41.7698H339.66Z" fill="white"/>
<path d="M358.67 14.537C358.394 15.4408 358.041 16.4222 357.611 17.4811C357.182 18.5399 356.706 19.5987 356.184 20.6576C355.693 21.6906 355.202 22.672 354.711 23.6017H351.72C351.934 22.8786 352.149 22.1038 352.364 21.2774C352.609 20.451 352.824 19.6246 353.008 18.7981C353.223 17.9459 353.407 17.1195 353.561 16.3189C353.745 15.5183 353.898 14.7823 354.021 14.1108H358.348L358.67 14.537Z" fill="white"/>
<path d="M363.816 16.9L425.164 16.3189L404.874 22.0521H368.419V26.5845H404.874V37.896C404.874 39.1356 404.49 40.1041 403.723 40.8014C402.956 41.447 401.805 41.7698 400.271 41.7698H348.866L359.213 36.6177H396.036V31.7754H359.213V20.7738C359.213 19.6633 359.597 18.7465 360.364 18.0234C361.131 17.2744 362.282 16.9 363.816 16.9Z" fill="white"/>
<path d="M153.225 65.3224C154.759 65.3224 155.833 65.7097 156.447 66.4845C157.092 67.2334 157.414 68.1373 157.414 69.1962V86.3184C157.414 87.8421 156.969 88.8622 156.079 89.3787C155.189 89.921 154.361 90.1922 153.593 90.1922H111.385C110.648 90.1922 109.82 89.921 108.899 89.3787C108.009 88.8364 107.564 87.8163 107.564 86.3184V69.1962C107.564 68.1115 107.948 67.2076 108.715 66.4845C109.482 65.7097 110.633 65.3224 112.167 65.3224H153.225ZM148.622 70.5133H116.77V85.04H148.622V70.5133Z" fill="white"/>
<path d="M169.695 65.9809L196.161 84.0716V65.3224H205.367V87.2868C205.367 87.9067 205.106 88.5006 204.585 89.0688C204.124 89.5595 203.618 89.9339 203.066 90.1922C201.47 90.6312 199.936 90.7345 198.463 90.5021C196.929 90.3213 195.517 89.8952 194.228 89.2237C194.228 89.2237 193.921 89.043 193.308 88.6814C192.725 88.294 191.819 87.7259 190.592 86.9769C189.365 86.228 188.06 85.4145 186.68 84.5364C185.329 83.6326 183.887 82.6641 182.353 81.6311C179.254 79.5909 176.308 77.654 173.515 75.8204C170.692 74.0126 169.035 72.773 168.544 72.1015V90.1922H159.707V68.5764C159.707 67.7241 160.152 66.9623 161.041 66.2908C161.993 65.6452 162.959 65.2191 163.941 65.0125C164.309 65.0125 164.724 65.0254 165.184 65.0512C165.675 65.077 166.212 65.1158 166.795 65.1674C167.93 65.2965 168.897 65.5677 169.695 65.9809Z" fill="white"/>
<path d="M212.271 65.3224H257.518V70.5133H216.874V85.04H257.518V90.1922H211.489C210.752 90.1922 209.924 89.921 209.003 89.3787C208.113 88.8364 207.668 87.8163 207.668 86.3184V69.1962C207.668 68.1115 208.052 67.2076 208.819 66.4845C209.586 65.7097 210.737 65.3224 212.271 65.3224Z" fill="white"/>
<path d="M259.81 65.3224H305.471V70.4745H259.81V65.3224ZM259.81 75.0069H295.483V80.1978H269.016V84.6914H305.471V90.1922H259.81V75.0069Z" fill="white"/>
<path d="M348.83 65.3224C350.364 65.3224 351.515 65.6968 352.282 66.4458C353.049 67.2205 353.433 68.1373 353.433 69.1962V76.324C353.433 77.5894 352.988 78.5579 352.098 79.2293C351.147 79.875 350.303 80.1978 349.566 80.1978H316.61V90.1922H307.772V75.0069H344.595V70.4745H307.772V65.3224H348.83Z" fill="white"/>
<path d="M420.561 65.0125L400.98 70.5133H382.983V90.1922H373.777V70.5133H355.734V65.3224L420.561 65.0125Z" fill="white"/>
<path d="M115.51 56.2007L124.141 48.4749H459.246L416.596 95.5656H400.857L434.875 56.2007H115.51Z" fill="#ACA6A6"/>
<path d="M403.852 3.99989L409.118 9.88623H148.246L153.99 3.99989H403.852Z" fill="#ACA6A6"/>
<defs>
<filter id="filter0_d_30_42" x="0" y="0" width="144.044" height="99.5654" filterUnits="userSpaceOnUse" color-interpolation-filters="sRGB">
<feFlood flood-opacity="0" result="BackgroundImageFix"/>
<feColorMatrix in="SourceAlpha" type="matrix" values="0 0 0 0 0 0 0 0 0 0 0 0 0 0 0 0 0 0 127 0" result="hardAlpha"/>
<feOffset/>
<feGaussianBlur stdDeviation="2"/>
<feComposite in2="hardAlpha" operator="out"/>
<feColorMatrix type="matrix" values="0 0 0 0 0 0 0 0 0 0 0 0 0 0 0 0 0 0 0.25 0"/>
<feBlend mode="normal" in2="BackgroundImageFix" result="effect1_dropShadow_30_42"/>
<feBlend mode="normal" in="SourceGraphic" in2="effect1_dropShadow_30_42" result="shape"/>
</filter>
</defs>
</svg>
