<svg width="589" height="104" viewBox="0 0 589 104" fill="none" xmlns="http://www.w3.org/2000/svg">
<g filter="url(#filter0_d_52_7)">
<path d="M168.032 8H269.045L247.772 16.2102H175.287V23.4328H232.752V41.4582C232.752 43.4336 232.148 44.9769 230.939 46.0881C229.729 47.1169 227.915 47.6313 225.497 47.6313H133L160.776 39.4211H218.822V31.7047H160.776V14.1731C160.776 12.4035 161.38 10.9425 162.59 9.7902C163.799 8.59673 165.613 8 168.032 8Z" fill="#FF002E" fill-opacity="0.8" shape-rendering="crispEdges"/>
<path d="M140.256 59.934H190.019H239.781L220.649 68.2059H147.512V91.3551H211.58L239.781 99.5653H139.023C137.862 99.5653 136.556 99.1332 135.104 98.269C133.702 97.4047 133 95.7791 133 93.3922V66.1071C133 64.3786 133.605 62.9382 134.814 61.7859C136.023 60.5513 137.837 59.934 140.256 59.934Z" fill="#FF002E" fill-opacity="0.8" shape-rendering="crispEdges"/>
</g>
<path d="M277.208 20.9H286.828V45.7698H277.208V35.7754H250.373V45.7698H241.167V20.9H250.373V30.5845H277.208V20.9Z" fill="white"/>
<path d="M289.129 20.9H322.868C324.096 20.9 325.385 21.2228 326.735 21.8684C327.993 22.5399 328.622 23.5083 328.622 24.7738V45.7698H319.831V35.7754H293.732V30.9331H319.831V26.7107C319.831 26.5041 319.631 26.3491 319.232 26.2458C319.048 26.1942 318.91 26.1554 318.818 26.1296C318.726 26.1038 318.68 26.0909 318.68 26.0909H289.129V20.9Z" fill="white"/>
<path d="M340.921 21.5585L353.579 30.2746L366.605 21.5585C367.925 20.7063 369.904 20.4868 372.543 20.9C375.243 21.339 376.594 22.4237 376.594 24.154V45.7698H367.388V27.6791C366.989 28.0149 366.36 28.4926 365.501 29.1125C364.672 29.7323 363.567 30.4941 362.186 31.398C360.836 32.3019 359.44 33.2316 357.998 34.1871C356.586 35.1169 355.113 36.0724 353.579 37.0538C352.014 36.0724 350.495 35.1169 349.022 34.1871C347.58 33.2316 346.153 32.3019 344.742 31.398C341.918 29.5902 340.261 28.3506 339.77 27.6791V45.7698H330.933V24.154C330.933 22.4237 332.206 21.339 334.753 20.9C337.3 20.4868 339.356 20.7063 340.921 21.5585Z" fill="white"/>
<path d="M378.895 20.9H412.634C413.861 20.9 415.15 21.2228 416.5 21.8684C417.758 22.5399 418.387 23.5083 418.387 24.7738V45.7698H409.596V35.7754H383.497V30.9331H409.596V26.7107C409.596 26.5041 409.396 26.3491 408.997 26.2458C408.813 26.1942 408.675 26.1554 408.583 26.1296C408.491 26.1038 408.445 26.0909 408.445 26.0909H378.895V20.9Z" fill="white"/>
<path d="M430.686 21.5585L457.153 39.6492V20.9H466.359V42.8645C466.359 43.4843 466.098 44.0783 465.576 44.6464C465.116 45.1371 464.61 45.5116 464.057 45.7698C462.462 46.2089 460.927 46.3122 459.455 46.0797C457.92 45.8989 456.509 45.4728 455.22 44.8014C455.22 44.8014 454.913 44.6206 454.299 44.259C453.716 43.8717 452.811 43.3035 451.584 42.5546C450.356 41.8056 449.052 40.9921 447.671 40.1141C446.321 39.2102 444.879 38.2417 443.344 37.2087C440.245 35.1685 437.299 33.2316 434.507 31.398C431.684 29.5902 430.027 28.3506 429.536 27.6791V45.7698H420.698V24.154C420.698 23.3017 421.143 22.5399 422.033 21.8684C422.984 21.2228 423.951 20.7967 424.933 20.5901C425.301 20.5901 425.715 20.603 426.176 20.6288C426.667 20.6546 427.204 20.6934 427.787 20.745C428.922 20.8742 429.889 21.1453 430.686 21.5585Z" fill="white"/>
<path d="M468.66 45.7698V20.9H477.866V45.7698H468.66Z" fill="white"/>
<path d="M487.67 18.537C487.394 19.4408 487.041 20.4222 486.611 21.4811C486.182 22.5399 485.706 23.5987 485.184 24.6576C484.693 25.6906 484.202 26.672 483.711 27.6017H480.72C480.934 26.8786 481.149 26.1038 481.364 25.2774C481.609 24.451 481.824 23.6246 482.008 22.7981C482.223 21.9459 482.407 21.1195 482.561 20.3189C482.745 19.5183 482.898 18.7823 483.021 18.1108H487.348L487.67 18.537Z" fill="white"/>
<path d="M492.816 20.9L554.164 20.3189L533.874 26.0521H497.419V30.5845H533.874V41.896C533.874 43.1356 533.49 44.1041 532.723 44.8014C531.956 45.447 530.805 45.7698 529.271 45.7698H477.866L488.213 40.6177H525.036V35.7754H488.213V24.7738C488.213 23.6633 488.597 22.7465 489.364 22.0234C490.131 21.2744 491.282 20.9 492.816 20.9Z" fill="white"/>
<path d="M282.225 69.3224C283.759 69.3224 284.833 69.7097 285.447 70.4845C286.092 71.2334 286.414 72.1373 286.414 73.1962V90.3184C286.414 91.8421 285.969 92.8622 285.079 93.3787C284.189 93.921 283.361 94.1922 282.593 94.1922H240.385C239.648 94.1922 238.82 93.921 237.899 93.3787C237.009 92.8364 236.564 91.8163 236.564 90.3184V73.1962C236.564 72.1115 236.948 71.2076 237.715 70.4845C238.482 69.7097 239.633 69.3224 241.167 69.3224H282.225ZM277.622 74.5133H245.77V89.04H277.622V74.5133Z" fill="white"/>
<path d="M298.695 69.9809L325.161 88.0716V69.3224H334.367V91.2868C334.367 91.9067 334.106 92.5006 333.585 93.0688C333.124 93.5595 332.618 93.9339 332.066 94.1922C330.47 94.6312 328.936 94.7345 327.463 94.5021C325.929 94.3213 324.517 93.8952 323.228 93.2237C323.228 93.2237 322.921 93.043 322.308 92.6814C321.725 92.294 320.819 91.7259 319.592 90.9769C318.365 90.228 317.06 89.4145 315.68 88.5364C314.329 87.6326 312.887 86.6641 311.353 85.6311C308.254 83.5909 305.308 81.654 302.515 79.8204C299.692 78.0126 298.035 76.773 297.544 76.1015V94.1922H288.707V72.5764C288.707 71.7241 289.152 70.9623 290.041 70.2908C290.993 69.6452 291.959 69.2191 292.941 69.0125C293.309 69.0125 293.724 69.0254 294.184 69.0512C294.675 69.077 295.212 69.1158 295.795 69.1674C296.93 69.2965 297.897 69.5677 298.695 69.9809Z" fill="white"/>
<path d="M341.271 69.3224H386.518V74.5133H345.874V89.04H386.518V94.1922H340.489C339.752 94.1922 338.924 93.921 338.003 93.3787C337.113 92.8364 336.668 91.8163 336.668 90.3184V73.1962C336.668 72.1115 337.052 71.2076 337.819 70.4845C338.586 69.7097 339.737 69.3224 341.271 69.3224Z" fill="white"/>
<path d="M388.81 69.3224H434.471V74.4745H388.81V69.3224ZM388.81 79.0069H424.483V84.1978H398.016V88.6914H434.471V94.1922H388.81V79.0069Z" fill="white"/>
<path d="M477.83 69.3224C479.364 69.3224 480.515 69.6968 481.282 70.4458C482.049 71.2205 482.433 72.1373 482.433 73.1962V80.324C482.433 81.5894 481.988 82.5579 481.098 83.2293C480.147 83.875 479.303 84.1978 478.566 84.1978H445.61V94.1922H436.772V79.0069H473.595V74.4745H436.772V69.3224H477.83Z" fill="white"/>
<path d="M549.561 69.0125L529.98 74.5133H511.983V94.1922H502.777V74.5133H484.734V69.3224L549.561 69.0125Z" fill="white"/>
<path d="M244.51 60.2007L253.141 52.4749H588.246L545.596 99.5656H529.857L563.875 60.2007H244.51Z" fill="#ACA6A6"/>
<path d="M532.852 7.99989L538.118 13.8862H277.246L282.99 7.99989H532.852Z" fill="#ACA6A6"/>
<g filter="url(#filter1_d_52_7)">
<path d="M18.7509 16.4947C12.4135 24.2596 9.57981 29.0415 5.77621 38.3152C2.93195 50.5179 3.5103 57.7186 7.46292 71.0461C11.6463 79.6794 14.6535 83.1377 20.1781 88.9701C25.6815 93.4837 29.3241 95.4938 36.9155 98.062C44.4033 99.9347 48.9548 100.441 58.194 99.6206C69.709 97.1247 74.1954 95.6883 83.6244 88.9701C89.8309 83.6843 92.7534 79.8436 96.7289 71.0461C99.2407 62.9272 100.178 57.7822 99.9726 46.2382C98.9614 38.9958 97.7333 34.6738 92.7067 25.8463C87.6747 19.2143 84.4391 15.912 77.6561 11.0395C70.6473 6.98133 66.3707 5.50593 58.194 4.02578C49.7309 3.87772 45.0732 4.34107 36.9155 6.10393C29.6775 9.2342 25.7238 11.6598 18.7509 16.4947Z" fill="#FF002E" fill-opacity="0.7"/>
<path d="M18.7509 16.4947C12.4135 24.2596 9.57981 29.0415 5.77621 38.3152C2.93195 50.5179 3.5103 57.7186 7.46292 71.0461C11.6463 79.6794 14.6535 83.1377 20.1781 88.9701C25.6815 93.4837 29.3241 95.4938 36.9155 98.062C44.4033 99.9347 48.9548 100.441 58.194 99.6206C69.709 97.1247 74.1954 95.6883 83.6244 88.9701C89.8309 83.6843 92.7534 79.8436 96.7289 71.0461C99.2407 62.9272 100.178 57.7822 99.9726 46.2382C98.9614 38.9958 97.7333 34.6738 92.7067 25.8463C87.6747 19.2143 84.4391 15.912 77.6561 11.0395C70.6473 6.98133 66.3707 5.50593 58.194 4.02578C49.7309 3.87772 45.0732 4.34107 36.9155 6.10393C29.6775 9.2342 25.7238 11.6598 18.7509 16.4947Z" stroke="#FF002E" stroke-opacity="0.7"/>
</g>
<g filter="url(#filter2_d_52_7)">
<path d="M83.4946 35.4578C79.7607 24.08 76.3639 19.1872 68.3142 12.728C73.845 14.7878 76.8545 16.6212 82.0674 21.0406C86.6799 25.9819 88.5877 28.7717 91.2794 33.7693C94.6666 43.5513 95.3567 49.1733 94.0041 59.4864C92.2989 67.7636 90.114 72.5687 82.0674 81.6966C72.7774 89.1103 67.4392 92.8756 56.2477 94.5551C54.523 92.1527 54.251 90.6913 56.2477 87.6712C54.9307 84.6798 54.0835 85.0321 52.3553 89.7494C51.4386 78.4658 63.6239 65.9804 63.1243 65.8507C62.6248 65.721 60.8893 63.4237 58.9724 65.8507C60.6407 59.0923 62.0236 55.7773 65.849 51.3037C64.3341 50.8243 63.4156 51.5899 61.6971 54.1611C63.1579 48.599 63.7504 45.6925 63.1243 42.0819C63.362 40.1821 63.2055 39.1427 60.1401 37.5359C57.2009 38.6367 55.9164 40.3189 53.9123 44.16C52.9324 47.2053 51.6108 49.4439 48.2034 54.1611L46.1274 51.3037C46.7614 47.3855 47.1467 45.3796 48.2034 44.16V37.5359L50.9281 31.9509C51.5593 30.326 51.868 28.5175 52.3553 24.028L53.9123 28.3141C58.089 24.874 60.7869 24.2429 65.849 24.028L64.292 26.7555C69.8901 28.5942 72.5428 31.4469 77.0072 37.5359L72.7256 36.367C75.3871 43.7595 76.3631 47.0909 77.0072 51.3037L73.6338 48.3163C73.607 53.1181 74.89 55.0545 78.175 57.9278C80.8604 59.1898 82.3661 59.0295 85.0515 57.9278C87.3392 54.4773 88.1198 52.344 88.944 48.3163L86.4788 51.3037C88.0474 43.7817 87.978 39.549 85.0515 31.9509L83.4946 35.4578Z" fill="#D9D9D9" shape-rendering="crispEdges"/>
<path d="M83.4946 35.4578C79.7607 24.08 76.3639 19.1872 68.3142 12.728C73.845 14.7878 76.8545 16.6212 82.0674 21.0406C86.6799 25.9819 88.5877 28.7717 91.2794 33.7693C94.6666 43.5513 95.3567 49.1733 94.0041 59.4864C92.2989 67.7636 90.114 72.5687 82.0674 81.6966C72.7774 89.1103 67.4392 92.8756 56.2477 94.5551C54.523 92.1527 54.251 90.6913 56.2477 87.6712C54.9307 84.6798 54.0835 85.0321 52.3553 89.7494C51.4386 78.4658 63.6239 65.9804 63.1243 65.8507C62.6248 65.721 60.8893 63.4237 58.9724 65.8507C60.6407 59.0923 62.0236 55.7773 65.849 51.3037C64.3341 50.8243 63.4156 51.5899 61.6971 54.1611C63.1579 48.599 63.7504 45.6925 63.1243 42.0819C63.362 40.1821 63.2055 39.1427 60.1401 37.5359C57.2009 38.6367 55.9164 40.3189 53.9123 44.16C52.9324 47.2053 51.6108 49.4439 48.2034 54.1611L46.1274 51.3037C46.7614 47.3855 47.1467 45.3796 48.2034 44.16V37.5359L50.9281 31.9509C51.5593 30.326 51.868 28.5175 52.3553 24.028L53.9123 28.3141C58.089 24.874 60.7869 24.2429 65.849 24.028L64.292 26.7555C69.8901 28.5942 72.5428 31.4469 77.0072 37.5359L72.7256 36.367C75.3871 43.7595 76.3631 47.0909 77.0072 51.3037L73.6338 48.3163C73.607 53.1181 74.89 55.0545 78.175 57.9278C80.8604 59.1898 82.3661 59.0295 85.0515 57.9278C87.3392 54.4773 88.1198 52.344 88.944 48.3163L86.4788 51.3037C88.0474 43.7817 87.978 39.549 85.0515 31.9509L83.4946 35.4578Z" fill="#3F3E3E" shape-rendering="crispEdges"/>
<path d="M83.4946 35.4578C79.7607 24.08 76.3639 19.1872 68.3142 12.728C73.845 14.7878 76.8545 16.6212 82.0674 21.0406C86.6799 25.9819 88.5877 28.7717 91.2794 33.7693C94.6666 43.5513 95.3567 49.1733 94.0041 59.4864C92.2989 67.7636 90.114 72.5687 82.0674 81.6966C72.7774 89.1103 67.4392 92.8756 56.2477 94.5551C54.523 92.1527 54.251 90.6913 56.2477 87.6712C54.9307 84.6798 54.0835 85.0321 52.3553 89.7494C51.4386 78.4658 63.6239 65.9804 63.1243 65.8507C62.6248 65.721 60.8893 63.4237 58.9724 65.8507C60.6407 59.0923 62.0236 55.7773 65.849 51.3037C64.3341 50.8243 63.4156 51.5899 61.6971 54.1611C63.1579 48.599 63.7504 45.6925 63.1243 42.0819C63.362 40.1821 63.2055 39.1427 60.1401 37.5359C57.2009 38.6367 55.9164 40.3189 53.9123 44.16C52.9324 47.2053 51.6108 49.4439 48.2034 54.1611L46.1274 51.3037C46.7614 47.3855 47.1467 45.3796 48.2034 44.16V37.5359L50.9281 31.9509C51.5593 30.326 51.868 28.5175 52.3553 24.028L53.9123 28.3141C58.089 24.874 60.7869 24.2429 65.849 24.028L64.292 26.7555C69.8901 28.5942 72.5428 31.4469 77.0072 37.5359L72.7256 36.367C75.3871 43.7595 76.3631 47.0909 77.0072 51.3037L73.6338 48.3163C73.607 53.1181 74.89 55.0545 78.175 57.9278C80.8604 59.1898 82.3661 59.0295 85.0515 57.9278C87.3392 54.4773 88.1198 52.344 88.944 48.3163L86.4788 51.3037C88.0474 43.7817 87.978 39.549 85.0515 31.9509L83.4946 35.4578Z" stroke="#FF002E" stroke-opacity="0.7" shape-rendering="crispEdges"/>
</g>
<g filter="url(#filter3_d_52_7)">
<path d="M57.8043 57.668C57.3218 53.8493 57.8172 53.7667 56.2473 51.9531C52.9946 54.2321 51.8171 55.4768 50.2789 57.668C48.7011 59.1375 49.0261 57.7533 46.9055 65.4611C44.5237 66.1239 43.1731 66.1584 40.6777 64.2921C40.1006 59.8067 40.2737 57.0244 43.9213 50.2646L39.7694 51.9531C40.9139 43.8879 42.648 40.5473 46.9055 35.8475L42.1049 37.9256C45.2788 34.8215 46.9551 32.9498 48.722 28.0544C50.833 22.8791 51.4999 19.7519 51.4467 13.6372C50.9111 15.7824 50.2962 16.312 48.722 16.2349C49.226 13.5955 48.9496 12.2567 46.9055 10.2603C39.2167 10.3307 34.8974 12.1802 27.184 17.5338C19.7742 22.9981 16.9577 27.2583 13.0415 35.8475C9.69871 43.4354 8.9011 48.1954 9.53837 57.668C10.269 67.2032 12.3372 70.8311 16.6745 76.6311C24.9696 86.8644 28.8454 89.2661 35.358 91.8276C27.5066 84.1852 23.7777 79.359 20.3074 68.1886L19.1396 72.0852C16.9528 64.3972 16.434 60.3056 17.9719 53.7715L14.9877 54.9404C15.1973 49.6959 16.1784 47.3977 20.3074 45.0692C23.643 44.9298 25.0992 45.6838 27.184 48.0566C28.6845 51.0668 29.0083 52.4714 29.5194 54.9404L27.184 53.7715C28.8407 62.0298 30.1257 65.0262 32.8928 68.1886L29.5194 69.7472C34.2692 74.0972 37.0192 75.2798 42.1049 74.8127C41.8351 77.1365 41.1971 77.8317 39.7694 78.7093C45.4025 78.3282 47.8717 77.9759 48.722 76.6311L50.2789 80.3978C50.2771 77.2651 51.4467 74.8127 51.4467 74.8127C51.4467 74.8127 53.1924 70.4553 54.8201 69.7472C55.1896 67.5709 55.185 66.1703 54.8201 63.3829L57.8043 57.668Z" fill="#ACA6A6" shape-rendering="crispEdges"/>
<path d="M57.8043 57.668C57.3218 53.8493 57.8172 53.7667 56.2473 51.9531C52.9946 54.2321 51.8171 55.4768 50.2789 57.668C48.7011 59.1375 49.0261 57.7533 46.9055 65.4611C44.5237 66.1239 43.1731 66.1584 40.6777 64.2921C40.1006 59.8067 40.2737 57.0244 43.9213 50.2646L39.7694 51.9531C40.9139 43.8879 42.648 40.5473 46.9055 35.8475L42.1049 37.9256C45.2788 34.8215 46.9551 32.9498 48.722 28.0544C50.833 22.8791 51.4999 19.7519 51.4467 13.6372C50.9111 15.7824 50.2962 16.312 48.722 16.2349C49.226 13.5955 48.9496 12.2567 46.9055 10.2603C39.2167 10.3307 34.8974 12.1802 27.184 17.5338C19.7742 22.9981 16.9577 27.2583 13.0415 35.8475C9.69871 43.4354 8.9011 48.1954 9.53837 57.668C10.269 67.2032 12.3372 70.8311 16.6745 76.6311C24.9696 86.8644 28.8454 89.2661 35.358 91.8276C27.5066 84.1852 23.7777 79.359 20.3074 68.1886L19.1396 72.0852C16.9528 64.3972 16.434 60.3056 17.9719 53.7715L14.9877 54.9404C15.1973 49.6959 16.1784 47.3977 20.3074 45.0692C23.643 44.9298 25.0992 45.6838 27.184 48.0566C28.6845 51.0668 29.0083 52.4714 29.5194 54.9404L27.184 53.7715C28.8407 62.0298 30.1257 65.0262 32.8928 68.1886L29.5194 69.7472C34.2692 74.0972 37.0192 75.2798 42.1049 74.8127C41.8351 77.1365 41.1971 77.8317 39.7694 78.7093C45.4025 78.3282 47.8717 77.9759 48.722 76.6311L50.2789 80.3978C50.2771 77.2651 51.4467 74.8127 51.4467 74.8127C51.4467 74.8127 53.1924 70.4553 54.8201 69.7472C55.1896 67.5709 55.185 66.1703 54.8201 63.3829L57.8043 57.668Z" stroke="#FF002E" stroke-opacity="0.7" shape-rendering="crispEdges"/>
</g>
<defs>
<filter id="filter0_d_52_7" x="129" y="4" width="144.044" height="99.5654" filterUnits="userSpaceOnUse" color-interpolation-filters="sRGB">
<feFlood flood-opacity="0" result="BackgroundImageFix"/>
<feColorMatrix in="SourceAlpha" type="matrix" values="0 0 0 0 0 0 0 0 0 0 0 0 0 0 0 0 0 0 127 0" result="hardAlpha"/>
<feOffset/>
<feGaussianBlur stdDeviation="2"/>
<feComposite in2="hardAlpha" operator="out"/>
<feColorMatrix type="matrix" values="0 0 0 0 0 0 0 0 0 0 0 0 0 0 0 0 0 0 0.25 0"/>
<feBlend mode="normal" in2="BackgroundImageFix" result="effect1_dropShadow_52_7"/>
<feBlend mode="normal" in="SourceGraphic" in2="effect1_dropShadow_52_7" result="shape"/>
</filter>
<filter id="filter1_d_52_7" x="0.5" y="0.5" width="103" height="103" filterUnits="userSpaceOnUse" color-interpolation-filters="sRGB">
<feFlood flood-opacity="0" result="BackgroundImageFix"/>
<feColorMatrix in="SourceAlpha" type="matrix" values="0 0 0 0 0 0 0 0 0 0 0 0 0 0 0 0 0 0 127 0" result="hardAlpha"/>
<feOffset/>
<feGaussianBlur stdDeviation="1.5"/>
<feColorMatrix type="matrix" values="0 0 0 0 0 0 0 0 0 0 0 0 0 0 0 0 0 0 0.25 0"/>
<feBlend mode="normal" in2="BackgroundImageFix" result="effect1_dropShadow_52_7"/>
<feBlend mode="normal" in="SourceGraphic" in2="effect1_dropShadow_52_7" result="shape"/>
</filter>
<filter id="filter2_d_52_7" x="41.6006" y="8.25952" width="57.5532" height="90.8354" filterUnits="userSpaceOnUse" color-interpolation-filters="sRGB">
<feFlood flood-opacity="0" result="BackgroundImageFix"/>
<feColorMatrix in="SourceAlpha" type="matrix" values="0 0 0 0 0 0 0 0 0 0 0 0 0 0 0 0 0 0 127 0" result="hardAlpha"/>
<feOffset/>
<feGaussianBlur stdDeviation="2"/>
<feComposite in2="hardAlpha" operator="out"/>
<feColorMatrix type="matrix" values="0 0 0 0 0 0 0 0 0 0 0 0 0 0 0 0 0 0 0.25 0"/>
<feBlend mode="normal" in2="BackgroundImageFix" result="effect1_dropShadow_52_7"/>
<feBlend mode="normal" in="SourceGraphic" in2="effect1_dropShadow_52_7" result="shape"/>
</filter>
<filter id="filter3_d_52_7" x="4.83691" y="5.7583" width="57.4829" height="90.5347" filterUnits="userSpaceOnUse" color-interpolation-filters="sRGB">
<feFlood flood-opacity="0" result="BackgroundImageFix"/>
<feColorMatrix in="SourceAlpha" type="matrix" values="0 0 0 0 0 0 0 0 0 0 0 0 0 0 0 0 0 0 127 0" result="hardAlpha"/>
<feOffset/>
<feGaussianBlur stdDeviation="2"/>
<feComposite in2="hardAlpha" operator="out"/>
<feColorMatrix type="matrix" values="0 0 0 0 0 0 0 0 0 0 0 0 0 0 0 0 0 0 0.25 0"/>
<feBlend mode="normal" in2="BackgroundImageFix" result="effect1_dropShadow_52_7"/>
<feBlend mode="normal" in="SourceGraphic" in2="effect1_dropShadow_52_7" result="shape"/>
</filter>
</defs>
</svg>
